<svg width="64" height="64" viewBox="0 0 64 64" fill="none" xmlns="http://www.w3.org/2000/svg">
<rect width="64" height="64" rx="10" fill="#6374F4"/>
<g clip-path="url(#clip0_1407_2365)">
<path d="M44.1702 33.9349C44.5848 31.2804 44.1749 28.5625 42.9959 26.1484C41.8168 23.7342 39.9253 21.7399 37.5768 20.4349C37.5768 20.3999 37.5868 20.3682 37.5868 20.3332C37.5868 18.5864 36.8929 16.911 35.6577 15.6758C34.4224 14.4405 32.7471 13.7466 31.0002 13.7466C29.2533 13.7466 27.5779 14.4405 26.3427 15.6758C25.1075 16.911 24.4135 18.5864 24.4135 20.3332C24.4135 20.3666 24.4235 20.3999 24.4235 20.4332C22.0747 21.7384 20.1831 23.7329 19.004 26.1474C17.8249 28.5619 17.4152 31.2801 17.8302 33.9349C16.7766 34.1796 15.7997 34.6803 14.9859 35.3927C14.1721 36.1051 13.5466 37.0073 13.1647 38.0192C12.7829 39.0311 12.6565 40.1216 12.7968 41.1941C12.937 42.2665 13.3396 43.2878 13.9689 44.1675C14.5982 45.0471 15.4347 45.758 16.4043 46.2372C17.374 46.7163 18.4469 46.949 19.5279 46.9144C20.6089 46.8799 21.6647 46.5793 22.6018 46.0392C23.5389 45.4991 24.3283 44.7363 24.9002 43.8182C26.7809 44.8087 28.8746 45.3262 31.0002 45.3262C33.1258 45.3262 35.2194 44.8087 37.1002 43.8182C37.6723 44.7354 38.4616 45.4974 39.3984 46.0367C40.3352 46.5761 41.3906 46.8761 42.471 46.9103C43.5514 46.9445 44.6236 46.7117 45.5926 46.2327C46.5617 45.7537 47.3976 45.0431 48.0265 44.164C48.6555 43.2848 49.0579 42.2641 49.1983 41.1923C49.3386 40.1205 49.2126 39.0306 48.8312 38.0191C48.4499 37.0077 47.8251 36.1058 47.0121 35.3934C46.1991 34.681 45.223 34.1801 44.1702 33.9349ZM31.0002 15.4182C31.9719 15.4182 32.9217 15.7064 33.7297 16.2462C34.5377 16.786 35.1674 17.5532 35.5393 18.4509C35.9113 19.3486 36.0087 20.3365 35.8192 21.2895C35.6298 22.2426 35.162 23.118 34.475 23.8052C33.788 24.4925 32.9127 24.9605 31.9597 25.1503C31.0068 25.3401 30.0189 25.243 29.1211 24.8714C28.2233 24.4998 27.4558 23.8703 26.9157 23.0625C26.3756 22.2547 26.0872 21.3049 26.0868 20.3332C26.0882 19.0306 26.6062 17.7816 27.5274 16.8605C28.4485 15.9393 29.6975 15.4196 31.0002 15.4182ZM19.3335 45.2482C18.3618 45.2482 17.4119 44.9601 16.604 44.4203C15.796 43.8805 15.1663 43.1132 14.7943 42.2155C14.4224 41.3179 14.325 40.33 14.5145 39.377C14.7039 38.4239 15.1717 37.5485 15.8587 36.8613C16.5456 36.174 17.421 35.706 18.3739 35.5162C19.3269 35.3264 20.3148 35.4235 21.2126 35.7951C22.1104 36.1667 22.8779 36.7962 23.418 37.604C23.9581 38.4118 24.2465 39.3616 24.2468 40.3332C24.2455 41.6359 23.7274 42.8849 22.8063 43.806C21.8852 44.7272 20.6362 45.2469 19.3335 45.2482ZM25.5835 42.3149C25.7979 41.6758 25.9115 41.0073 25.9202 40.3332C25.9171 38.6127 25.2408 36.9616 24.0361 35.7331C22.8313 34.5047 21.1937 33.7965 19.4735 33.7599C19.3808 33.1777 19.3318 32.5894 19.3268 31.9999C19.3273 30.0439 19.8212 28.1196 20.7628 26.4052C21.7043 24.6907 23.0632 23.2415 24.7135 22.1916C25.107 23.5548 25.933 24.7532 27.0669 25.6061C28.2008 26.459 29.5813 26.9202 31.0002 26.9202C32.4191 26.9202 33.7995 26.459 34.9334 25.6061C36.0674 24.7532 36.8933 23.5548 37.2868 22.1916C38.9372 23.2415 40.296 24.6907 41.2376 26.4052C42.1791 28.1196 42.673 30.0439 42.6735 31.9999C42.6685 32.5894 42.6195 33.1777 42.5268 33.7599C40.8066 33.7965 39.169 34.5047 37.9643 35.7331C36.7595 36.9616 36.0833 38.6127 36.0802 40.3332C36.089 41.0067 36.2026 41.6747 36.4168 42.3132C34.7403 43.1718 32.8837 43.6196 31.0002 43.6196C29.1166 43.6196 27.26 43.1735 25.5835 42.3149ZM42.6668 45.2466C41.6951 45.2466 40.7451 44.9584 39.9371 44.4185C39.1291 43.8786 38.4994 43.1113 38.1275 42.2135C37.7556 41.3157 37.6583 40.3278 37.8479 39.3747C38.0375 38.4216 38.5055 37.5461 39.1926 36.859C39.8797 36.1719 40.7552 35.7039 41.7083 35.5143C42.6614 35.3247 43.6493 35.422 44.5471 35.7939C45.4449 36.1658 46.2122 36.7956 46.7521 37.6035C47.292 38.4115 47.5802 39.3615 47.5802 40.3332C47.5789 41.6359 47.0608 42.8849 46.1396 43.806C45.2185 44.7272 43.9695 45.2453 42.6668 45.2466Z" fill="white"/>
</g>
<defs>
<clipPath id="clip0_1407_2365">
<rect width="40" height="40" fill="white" transform="translate(11 12)"/>
</clipPath>
</defs>
</svg>
