<svg width="64" height="64" viewBox="0 0 64 64" fill="none" xmlns="http://www.w3.org/2000/svg">
<rect width="64" height="64" rx="10" fill="#6374F4"/>
<path d="M31.9959 18.5437C29.4123 18.5437 27.3105 20.6455 27.3105 23.2289C27.3105 25.8125 29.4123 27.9142 31.9959 27.9142C34.5793 27.9142 36.6811 25.8125 36.6811 23.2289C36.6811 20.6455 34.5793 18.5437 31.9959 18.5437ZM31.9959 26.3207C30.2911 26.3207 28.9041 24.9337 28.9041 23.2289C28.9041 21.5242 30.2911 20.1373 31.9959 20.1373C33.7006 20.1373 35.0875 21.5242 35.0875 23.2289C35.0875 24.9337 33.7006 26.3207 31.9959 26.3207Z" fill="white"/>
<path d="M20.778 23.3123C18.6549 23.3123 16.9277 25.0394 16.9277 27.1625C16.9277 29.2855 18.6549 31.0127 20.778 31.0127C22.901 31.0127 24.6282 29.2855 24.6282 27.1625C24.6282 25.0394 22.9009 23.3123 20.778 23.3123ZM20.778 29.4191C19.5337 29.4191 18.5214 28.4068 18.5214 27.1625C18.5214 25.9182 19.5337 24.9059 20.778 24.9059C22.0223 24.9059 23.0345 25.9183 23.0345 27.1625C23.0345 28.4067 22.0223 29.4191 20.778 29.4191Z" fill="white"/>
<path d="M43.2243 23.3123C41.1013 23.3123 39.374 25.0394 39.374 27.1625C39.374 29.2855 41.1013 31.0127 43.2243 31.0127C45.3473 31.0127 47.0744 29.2855 47.0744 27.1625C47.0744 25.0394 45.3472 23.3123 43.2243 23.3123ZM43.2243 29.4191C41.98 29.4191 40.9677 28.4068 40.9677 27.1625C40.9677 25.9182 41.98 24.9059 43.2243 24.9059C44.4685 24.9059 45.4807 25.9183 45.4807 27.1625C45.4807 28.4067 44.4685 29.4191 43.2243 29.4191Z" fill="white"/>
<path d="M51.2032 43.8626H48.9628V37.996C48.9628 34.8319 46.3886 32.2577 43.2245 32.2577C41.4649 32.2577 39.8887 33.0544 38.8353 34.3053C38.0134 31.2996 35.2587 29.0837 31.9958 29.0837C28.7357 29.0837 25.9836 31.301 25.1637 34.3083C24.1118 33.0557 22.5366 32.2577 20.7784 32.2577C17.6143 32.2577 15.04 34.8319 15.04 37.996V43.8626H12.7968C12.3567 43.8626 12 44.2194 12 44.6594C12 45.0995 12.3567 45.4562 12.7968 45.4562H51.2032C51.6432 45.4562 52 45.0995 52 44.6594C52 44.2194 51.6432 43.8626 51.2032 43.8626ZM24.9145 43.8626H16.6336V37.996C16.6336 35.7107 18.4929 33.8514 20.7783 33.8514C23.059 33.8514 24.9145 35.7107 24.9145 37.996V43.8626H24.9145ZM37.4863 43.8626H26.5081V36.1735C26.5081 33.1429 28.9698 30.6773 31.9958 30.6773C35.0264 30.6773 37.492 33.1429 37.492 36.1735L37.4863 43.8626ZM47.3691 43.8626H39.0855V37.7794C39.1986 35.5943 41.0119 33.8513 43.2245 33.8513C45.5098 33.8513 47.3691 35.7106 47.3691 37.9959V43.8626Z" fill="white"/>
<path d="M28.1777 37.7454C27.7376 37.7454 27.3809 38.1021 27.3809 38.5422V42.3655C27.3809 42.8056 27.7376 43.1623 28.1777 43.1623C28.6177 43.1623 28.9745 42.8056 28.9745 42.3655V38.5422C28.9745 38.1022 28.6177 37.7454 28.1777 37.7454Z" fill="white"/>
<path d="M28.1777 35.1965C27.7376 35.1965 27.3809 35.5533 27.3809 35.9933V36.1633C27.3809 36.6033 27.7376 36.96 28.1777 36.96C28.6177 36.96 28.9745 36.6033 28.9745 36.1633V35.9933C28.9745 35.5533 28.6177 35.1965 28.1777 35.1965Z" fill="white"/>
</svg>
