<svg width="64" height="64" viewBox="0 0 64 64" fill="none" xmlns="http://www.w3.org/2000/svg">
<rect width="64" height="64" rx="10" fill="#6374F4"/>
<path d="M34.789 26.0231L45.4641 18.4473C46.2276 17.9054 47.2946 18.1722 47.7133 19.0096C47.9881 19.5591 47.9067 20.2197 47.507 20.6861L45.6667 22.8331L41.2701 28.6951C40.8991 29.19 40.8325 29.8496 41.0972 30.4086L47.0393 42.9529C47.5631 44.0586 46.7566 45.3331 45.5331 45.3331H38.697C37.9037 45.3331 37.2205 44.774 37.0634 43.9965L34.4331 30.978L34.095 27.5458C34.0363 26.9505 34.3011 26.3694 34.789 26.0231Z" stroke="white" stroke-width="2" stroke-linecap="round" stroke-linejoin="round"/>
<path d="M34.833 31.1667L40.6663 29.5" stroke="white" stroke-width="2" stroke-linecap="round" stroke-linejoin="round"/>
<path d="M28.1128 26.2524L17.5067 18.8298C16.7547 18.3036 15.7111 18.5643 15.295 19.3824C15.0157 19.9315 15.0979 20.5951 15.5028 21.0593L17.3328 23.1582L21.6931 28.6886C22.085 29.1856 22.1614 29.8619 21.8905 30.434L15.9603 42.9532C15.4365 44.059 16.243 45.3334 17.4665 45.3334H24.2678C25.0766 45.3334 25.7686 44.7528 25.9092 43.9564L28.1662 31.1667L28.7933 27.9354C28.9187 27.2892 28.6521 26.6298 28.1128 26.2524Z" stroke="white" stroke-width="2" stroke-linecap="round" stroke-linejoin="round"/>
<path d="M22.333 29.5L28.1663 31.1667" stroke="white" stroke-width="2" stroke-linecap="round" stroke-linejoin="round"/>
</svg>
