<svg width="64" height="64" viewBox="0 0 64 64" fill="none" xmlns="http://www.w3.org/2000/svg">
<rect width="64" height="64" rx="10" fill="#6374F4"/>
<mask id="mask0_1407_2352" style="mask-type:alpha" maskUnits="userSpaceOnUse" x="11" y="12" width="41" height="41">
<rect x="11.0342" y="12.5874" width="40" height="40" fill="#D9D9D9"/>
</mask>
<g mask="url(#mask0_1407_2352)">
<path d="M31.0345 49.254C30.2938 49.254 29.6364 49.0758 29.0623 48.7193C28.4882 48.3628 28.0901 47.8744 27.8678 47.254H27.479C26.729 47.254 26.0785 46.9785 25.5275 46.4276C24.9766 45.8767 24.7012 45.2262 24.7012 44.4762V38.5318C22.9326 37.3744 21.5322 35.879 20.4998 34.0457C19.4674 32.2123 18.9512 30.1984 18.9512 28.004C18.9512 24.6429 20.1248 21.7887 22.472 19.4415C24.8192 17.0943 27.6734 15.9207 31.0345 15.9207C34.3956 15.9207 37.2498 17.0943 39.597 19.4415C41.9442 21.7887 43.1178 24.6429 43.1178 28.004C43.1178 30.217 42.6016 32.2355 41.5692 34.0595C40.5368 35.8836 39.1364 37.3744 37.3678 38.5318V44.4762C37.3678 45.2262 37.0924 45.8767 36.5415 46.4276C35.9905 46.9785 35.34 47.254 34.59 47.254H34.2012C33.9789 47.8744 33.5808 48.3628 33.0067 48.7193C32.4327 49.0758 31.7753 49.254 31.0345 49.254ZM27.479 44.4762H34.59V42.754H27.479V44.4762ZM27.479 41.0873H34.59V39.4484H27.479V41.0873ZM27.1178 36.6707H29.979V31.3651L26.2012 27.5873L27.6456 26.1429L31.0345 29.5318L34.4234 26.1429L35.8678 27.5873L32.09 31.3651V36.6707H34.9512C36.5623 35.9114 37.8632 34.7517 38.854 33.1915C39.8447 31.6313 40.3401 29.9021 40.3401 28.004C40.3401 25.3929 39.4419 23.1892 37.6456 21.3929C35.8493 19.5966 33.6456 18.6984 31.0345 18.6984C28.4234 18.6984 26.2197 19.5966 24.4234 21.3929C22.6271 23.1892 21.7289 25.3929 21.7289 28.004C21.7289 29.9021 22.2243 31.6313 23.215 33.1915C24.2058 34.7517 25.5067 35.9114 27.1178 36.6707Z" fill="white"/>
</g>
</svg>
