<svg width="21" height="21" viewBox="0 0 21 21" fill="none" xmlns="http://www.w3.org/2000/svg">
<path d="M6.2 14.9277C6.38333 15.1111 6.61667 15.2027 6.9 15.2027C7.18333 15.2027 7.41667 15.1111 7.6 14.9277L10.5 12.0277L13.425 14.9527C13.6083 15.1361 13.8377 15.2234 14.113 15.2147C14.3877 15.2067 14.6167 15.1111 14.8 14.9277C14.9833 14.7444 15.075 14.5111 15.075 14.2277C15.075 13.9444 14.9833 13.7111 14.8 13.5277L11.9 10.6277L14.825 7.70275C15.0083 7.51941 15.0957 7.29008 15.087 7.01475C15.079 6.74008 14.9833 6.51108 14.8 6.32775C14.6167 6.14441 14.3833 6.05275 14.1 6.05275C13.8167 6.05275 13.5833 6.14441 13.4 6.32775L10.5 9.22775L7.575 6.30275C7.39167 6.11941 7.16267 6.03175 6.888 6.03975C6.61267 6.04841 6.38333 6.14441 6.2 6.32775C6.01667 6.51108 5.925 6.74441 5.925 7.02775C5.925 7.31108 6.01667 7.54441 6.2 7.72775L9.1 10.6277L6.175 13.5527C5.99167 13.7361 5.90433 13.9651 5.913 14.2397C5.921 14.5151 6.01667 14.7444 6.2 14.9277ZM10.5 20.6277C9.11667 20.6277 7.81667 20.3651 6.6 19.8397C5.38333 19.3151 4.325 18.6027 3.425 17.7027C2.525 16.8027 1.81267 15.7444 1.288 14.5277C0.762667 13.3111 0.5 12.0111 0.5 10.6277C0.5 9.24441 0.762667 7.94441 1.288 6.72775C1.81267 5.51108 2.525 4.45275 3.425 3.55275C4.325 2.65275 5.38333 1.94008 6.6 1.41475C7.81667 0.89008 9.11667 0.627747 10.5 0.627747C11.8833 0.627747 13.1833 0.89008 14.4 1.41475C15.6167 1.94008 16.675 2.65275 17.575 3.55275C18.475 4.45275 19.1873 5.51108 19.712 6.72775C20.2373 7.94441 20.5 9.24441 20.5 10.6277C20.5 12.0111 20.2373 13.3111 19.712 14.5277C19.1873 15.7444 18.475 16.8027 17.575 17.7027C16.675 18.6027 15.6167 19.3151 14.4 19.8397C13.1833 20.3651 11.8833 20.6277 10.5 20.6277ZM10.5 18.6277C12.7167 18.6277 14.6043 17.8487 16.163 16.2907C17.721 14.7321 18.5 12.8444 18.5 10.6277C18.5 8.41108 17.721 6.52341 16.163 4.96475C14.6043 3.40675 12.7167 2.62775 10.5 2.62775C8.28333 2.62775 6.396 3.40675 4.838 4.96475C3.27933 6.52341 2.5 8.41108 2.5 10.6277C2.5 12.8444 3.27933 14.7321 4.838 16.2907C6.396 17.8487 8.28333 18.6277 10.5 18.6277Z" fill="#950D95" fill-opacity="0.5"/>
</svg>
