<svg width="11" height="6" viewBox="0 0 11 6" fill="none" xmlns="http://www.w3.org/2000/svg">
<path d="M10.2369 0.261911C10.1541 0.178886 10.0556 0.113018 9.9473 0.0680755C9.83895 0.0231334 9.72281 0 9.60552 0C9.48822 0 9.37208 0.0231334 9.26374 0.0680755C9.15539 0.113018 9.05698 0.178886 8.97412 0.261911L5.49922 3.73681L2.02432 0.261911C1.9414 0.178995 1.84297 0.113223 1.73463 0.0683497C1.6263 0.023476 1.51019 0.000379223 1.39293 0.000379222C1.27566 0.000379221 1.15955 0.023476 1.05122 0.0683497C0.942883 0.113223 0.844446 0.178995 0.76153 0.261911C0.678615 0.344827 0.612844 0.443262 0.567969 0.551597C0.523096 0.659931 0.5 0.776044 0.5 0.893304C0.5 1.01056 0.523096 1.12668 0.567969 1.23501C0.612844 1.34335 0.678615 1.44178 0.76153 1.5247L4.8723 5.63547C4.95516 5.7185 5.05358 5.78436 5.16192 5.82931C5.27026 5.87425 5.3864 5.89738 5.5037 5.89738C5.62099 5.89738 5.73713 5.87425 5.84548 5.82931C5.95382 5.78436 6.05224 5.7185 6.13509 5.63547L10.2459 1.5247C10.5862 1.18437 10.5862 0.611192 10.2369 0.261911Z" fill="#000180"/>
</svg>
