<svg width="25" height="25" viewBox="0 0 25 25" fill="none" xmlns="http://www.w3.org/2000/svg">
<path d="M11.6667 18.6277C7.90004 18.6277 4.83337 15.5611 4.83337 11.7944C4.83337 8.02773 7.90004 4.96106 11.6667 4.96106C15.4334 4.96106 18.5 8.02773 18.5 11.7944C18.5 15.5611 15.4334 18.6277 11.6667 18.6277ZM11.6667 5.96106C8.44671 5.96106 5.83337 8.58106 5.83337 11.7944C5.83337 15.0077 8.44671 17.6277 11.6667 17.6277C14.8867 17.6277 17.5 15.0077 17.5 11.7944C17.5 8.58106 14.8867 5.96106 11.6667 5.96106Z" fill="white"/>
<path d="M18.6666 19.2944C18.54 19.2944 18.4133 19.2478 18.3133 19.1478L16.98 17.8144C16.7866 17.6211 16.7866 17.3011 16.98 17.1078C17.1733 16.9144 17.4933 16.9144 17.6866 17.1078L19.02 18.4411C19.2133 18.6344 19.2133 18.9544 19.02 19.1478C18.92 19.2478 18.7933 19.2944 18.6666 19.2944Z" fill="white"/>
</svg>
