<svg width="18" height="16" viewBox="0 0 18 16" fill="none" xmlns="http://www.w3.org/2000/svg">
<path d="M10.0429 0.833525L17.5857 7.43352C17.7 7.53352 17.7812 7.64186 17.8292 7.75852C17.8764 7.87519 17.9 8.00019 17.9 8.13352C17.9 8.26686 17.8764 8.39186 17.8292 8.50852C17.7812 8.62519 17.7 8.73352 17.5857 8.83352L10.0429 15.4335C9.83336 15.6169 9.57164 15.7129 9.25774 15.7215C8.94307 15.7295 8.67145 15.6335 8.44288 15.4335C8.21431 15.2502 8.09507 15.0212 8.08517 14.7465C8.07602 14.4712 8.18574 14.2335 8.41431 14.0335L14.0143 9.13352L1.24288 9.13352C0.919071 9.13352 0.647451 9.03786 0.428024 8.84652C0.209356 8.65452 0.100023 8.41686 0.100023 8.13352C0.100023 7.85019 0.209356 7.61286 0.428024 7.42152C0.647451 7.22952 0.919071 7.13352 1.24288 7.13352L14.0143 7.13352L8.41431 2.23352C8.20479 2.05019 8.09507 1.81686 8.08517 1.53352C8.07602 1.25019 8.18574 1.01686 8.41431 0.833525C8.62383 0.633525 8.8905 0.533524 9.21431 0.533524C9.53812 0.533524 9.81431 0.633525 10.0429 0.833525Z" fill="white"/>
</svg>
