<svg width="64" height="64" viewBox="0 0 64 64" fill="none" xmlns="http://www.w3.org/2000/svg">
<rect width="64" height="64" rx="10" fill="#6374F4"/>
<path d="M43.6548 44.4074C43.1694 44.8986 42.6876 45.3874 42.2349 46.0081V47.1666H35.4998V46.0081C35.6141 45.1063 36.1963 43.4811 36.2138 43.0296C36.2371 42.3949 37.1308 41.2364 37.1308 41.2364L39.8701 37.9371C39.8701 37.9371 40.6448 37.1554 41.0893 36.2874C41.5326 35.4194 42.4776 36.5114 42.6024 37.2919C42.7273 38.0736 42.4893 38.4843 42.4893 38.4843L40.9236 41.4558C40.9236 41.4558 42.7378 39.0816 43.3013 38.1273C43.5871 37.6443 43.6664 36.6199 43.7563 35.4766C43.8426 34.3613 43.9383 33.1328 44.2416 32.1773C44.8564 30.2406 46.6356 30.7259 46.9448 31.5904C47.2528 32.4561 47.1828 38.1728 47.0708 39.1248C46.9833 39.8714 46.5131 40.6018 45.9811 41.4243C45.8341 41.6529 45.6824 41.8874 45.5331 42.1324C44.9381 43.1066 44.2929 43.7599 43.6548 44.4074ZM36.6664 52.9999C36.357 52.9999 36.0603 52.877 35.8415 52.6582C35.6227 52.4394 35.4998 52.1427 35.4998 51.8333V49.4999C35.4998 49.1905 35.6227 48.8938 35.8415 48.675C36.0603 48.4562 36.357 48.3333 36.6664 48.3333H41.3331C41.6425 48.3333 41.9393 48.4562 42.1581 48.675C42.3768 48.8938 42.4998 49.1905 42.4998 49.4999V51.8333C42.4998 52.1427 42.3768 52.4394 42.1581 52.6582C41.9393 52.877 41.6425 52.9999 41.3331 52.9999H36.6664ZM19.1163 44.4074C19.6028 44.8986 20.0858 45.3874 20.5396 46.0081V47.1666H27.3331V46.0081C27.2188 45.1063 27.0181 43.4811 27.0006 43.0296C26.9761 42.3949 26.0801 41.2364 26.0801 41.2364L23.3326 37.9371C23.3326 37.9371 22.5544 37.1554 22.1088 36.2874C21.6643 35.4194 20.7169 36.5114 20.5909 37.2919C20.4649 38.0736 20.7041 38.4843 20.7041 38.4843L22.2744 41.4558C22.2744 41.4558 20.4544 39.0816 19.8886 38.1273C19.6028 37.6443 19.5223 36.6199 19.4336 35.4766C19.3461 34.3613 19.2504 33.1328 18.9459 32.1773C18.3288 30.2406 16.5426 30.7259 16.2334 31.5904C15.9243 32.4561 15.5754 38.1728 15.6874 39.1248C15.7761 39.8714 16.2474 40.6018 16.7818 41.4243C16.9288 41.6529 17.0816 41.8874 17.2309 42.1324C17.8283 43.1066 18.4758 43.7599 19.1163 44.4074ZM26.1664 52.9999C26.4759 52.9999 26.7726 52.877 26.9914 52.6582C27.2102 52.4394 27.3331 52.1427 27.3331 51.8333V49.4999C27.3331 49.1905 27.2102 48.8938 26.9914 48.675C26.7726 48.4562 26.4759 48.3333 26.1664 48.3333H21.4998C21.1903 48.3333 20.8936 48.4562 20.6748 48.675C20.456 48.8938 20.3331 49.1905 20.3331 49.4999V51.8333C20.3331 52.1427 20.456 52.4394 20.6748 52.6582C20.8936 52.877 21.1903 52.9999 21.4998 52.9999H26.1664ZM21.4998 24.0748C21.4998 20.3181 23.8541 16.8333 27.0776 16.8333C29.3153 16.8333 30.9743 18.3966 31.9998 20.6133C33.0241 18.3966 34.6843 16.8333 36.9219 16.8333C40.1454 16.8333 42.4998 20.3181 42.4998 24.0748C42.4998 32.1166 31.9998 37.8333 31.9998 37.8333C31.9998 37.8333 21.4998 32.4619 21.4998 24.0748Z" fill="white"/>
</svg>
