<svg width="64" height="64" viewBox="0 0 64 64" fill="none" xmlns="http://www.w3.org/2000/svg">
<rect width="64" height="64" rx="10" fill="#6374F4"/>
<g clip-path="url(#clip0_1407_2362)">
<path d="M25.6306 52C27.5284 48.7789 29.9797 46.1183 33.3316 43.4934C33.3619 43.4681 33.3952 43.439 33.4431 43.406C34.5375 42.6434 33.3925 42.0464 32.3782 41.326C30.8922 40.2741 29.6054 38.5888 29.9081 38.3313C30.281 38.0137 30.9654 39.9273 33.8217 40.9926C35.4491 41.5992 35.8323 41.3172 37.7675 40.4025C37.7805 40.3975 37.792 40.3941 37.8024 40.3887C38.3734 40.0446 38.9489 39.7124 39.5375 39.4062C42.6713 37.7696 45.2655 35.367 46.2848 33.5349L46.2867 33.5364C49.719 27.7559 48.1682 21.473 45.1942 17.8575C44.9091 17.5119 44.4834 17.1191 44.2435 16.8831C43.8753 17.2989 43.4254 18.0231 43.6657 18.8788C44.0661 20.3093 43.9366 21.6727 43.1698 22.5532C43.9871 25.0502 43.1414 27.9234 41.242 29.5677C40.2602 30.1992 39.252 30.6264 37.92 30.6456C34.8506 30.6893 32.663 29.4477 29.9725 28.3326C27.2473 27.2033 24.3491 26.6527 21.3978 26.7477C18.1295 26.8529 14.6766 27.9207 12.0001 29.9164V17.0053C12.0001 14.2409 14.2364 12 17.0054 12H46.9948C49.7592 12 52.0001 14.2363 52.0001 17.0053V46.9947C52.0001 49.7591 49.7638 52 46.9948 52H25.6307L25.6306 52ZM12 45.3643V44.1752C12.5356 44.1779 13.1209 44.1222 13.7598 43.9996C18.2486 43.1374 20.4305 39.9588 20.4305 39.9588C21.1861 39.0127 21.449 39.507 21.0409 40.2347C20.6075 41.0099 18.8076 43.962 14.3384 45.0791C13.5371 45.2797 12.7504 45.3731 12 45.3643H12ZM25.9826 33.7731C25.5898 34.3989 24.7656 34.587 24.1395 34.1939C23.5148 33.8019 23.3244 32.9768 23.7172 32.3511C24.1104 31.7246 24.9365 31.5364 25.5611 31.9284C26.1877 32.3216 26.3758 33.1466 25.9826 33.7731ZM39.3171 20.5187C40.5571 24.0687 43.5323 22.5156 42.8862 19.137C42.5375 17.3125 43.4365 16.3182 43.4365 16.3182C40.3441 15.1283 38.4128 17.9295 39.3171 20.5187Z" fill="white"/>
</g>
<defs>
<clipPath id="clip0_1407_2362">
<rect width="40" height="40" fill="white" transform="translate(12 12)"/>
</clipPath>
</defs>
</svg>
