<svg width="64" height="64" viewBox="0 0 64 64" fill="none" xmlns="http://www.w3.org/2000/svg">
<rect width="64" height="64" rx="10" fill="#6374F4"/>
<g clip-path="url(#clip0_1407_2393)">
<path d="M51.4595 34.501H49.682L47.1071 20.2822C47.0605 20.025 46.8366 19.8379 46.5752 19.8379H45.7948C45.6822 19.8379 45.5764 19.8727 45.4889 19.9328L33.6216 16.532V13.0557C33.6216 12.7572 33.3797 12.5151 33.0811 12.5151H30.9189C30.6203 12.5151 30.3784 12.7572 30.3784 13.0557V16.532L18.5109 19.9329C18.4234 19.8727 18.3176 19.8379 18.205 19.8379H17.4248C17.1634 19.8379 16.9395 20.025 16.8929 20.2822L14.3179 34.501H12.5405C12.2419 34.501 12 34.743 12 35.0415V35.5821C12 38.7884 14.6085 41.397 17.8148 41.397C21.0212 41.397 23.6297 38.7884 23.6297 35.5821V35.0415C23.6297 34.743 23.3878 34.501 23.0892 34.501H21.3117L19.0526 22.0268L30.3784 18.6195V47.7013H25.9804C25.6818 47.7013 25.4399 47.9434 25.4399 48.2418V50.9445C25.4399 51.243 25.6818 51.4851 25.9804 51.4851H38.0195C38.3181 51.4851 38.56 51.243 38.56 50.9445V48.2418C38.56 47.9434 38.3181 47.7013 38.0195 47.7013H33.6216V18.6195L44.9471 22.0268L42.6883 34.501H40.9108C40.6122 34.501 40.3703 34.743 40.3703 35.0415V35.5821C40.3703 38.7884 42.9788 41.397 46.1852 41.397C49.3915 41.397 52 38.7884 52 35.5821V35.0415C52 34.743 51.758 34.501 51.4595 34.501ZM44.8973 34.4358L46.1851 27.3244L47.4729 34.4358H44.8973ZM16.527 34.4358L17.8148 27.3244L19.1026 34.4358H16.527Z" fill="white"/>
</g>
<defs>
<clipPath id="clip0_1407_2393">
<rect width="40" height="40" fill="white" transform="translate(12 12)"/>
</clipPath>
</defs>
</svg>
