<svg width="24" height="24" viewBox="0 0 24 24" fill="none" xmlns="http://www.w3.org/2000/svg">
<rect width="24" height="24" rx="4" fill="#950D95"/>
<path d="M11.0662 18.3082C7.07387 18.3082 3.82349 15.0578 3.82349 11.0655C3.82349 7.07314 7.07387 3.82275 11.0662 3.82275C15.0585 3.82275 18.3089 7.07314 18.3089 11.0655C18.3089 15.0578 15.0585 18.3082 11.0662 18.3082ZM11.0662 4.88266C7.65329 4.88266 4.88339 7.65962 4.88339 11.0655C4.88339 14.4713 7.65329 17.2483 11.0662 17.2483C14.4791 17.2483 17.249 14.4713 17.249 11.0655C17.249 7.65962 14.4791 4.88266 11.0662 4.88266Z" fill="white"/>
<path d="M18.4856 19.0155C18.3513 19.0155 18.2171 18.9661 18.1111 18.8601L16.6979 17.4469C16.493 17.242 16.493 16.9028 16.6979 16.6979C16.9028 16.493 17.242 16.493 17.4469 16.6979L18.8601 18.1111C19.065 18.316 19.065 18.6552 18.8601 18.8601C18.7541 18.9661 18.6198 19.0155 18.4856 19.0155Z" fill="white"/>
</svg>
