<svg width="7" height="10" viewBox="0 0 7 10" fill="none" xmlns="http://www.w3.org/2000/svg">
<path d="M1.04431 0.582278C0.966881 0.659549 0.905451 0.751333 0.863537 0.852376C0.821623 0.953418 0.800049 1.06174 0.800049 1.17113C0.800049 1.28052 0.821623 1.38883 0.863537 1.48988C0.905451 1.59092 0.966881 1.6827 1.04431 1.75997L4.28507 5.00073L1.04431 8.24148C0.966983 8.31881 0.905643 8.41061 0.863793 8.51165C0.821943 8.61268 0.800402 8.72097 0.800402 8.83033C0.800402 8.93969 0.821943 9.04798 0.863793 9.14901C0.905643 9.25005 0.966983 9.34185 1.04431 9.41918C1.12164 9.49651 1.21344 9.55785 1.31448 9.5997C1.41551 9.64155 1.5238 9.66309 1.63316 9.66309C1.74252 9.66309 1.85081 9.64155 1.95184 9.5997C2.05288 9.55785 2.14468 9.49651 2.22201 9.41918L6.05579 5.5854C6.13322 5.50813 6.19465 5.41634 6.23656 5.3153C6.27847 5.21426 6.30005 5.10594 6.30005 4.99655C6.30005 4.88716 6.27847 4.77884 6.23656 4.6778C6.19465 4.57676 6.13322 4.48497 6.05579 4.4077L2.22201 0.573925C1.90461 0.256532 1.37006 0.256532 1.04431 0.582278Z" fill="#C9CDD2"/>
</svg>
